<?xml version="1.0" standalone="no"?>
<!DOCTYPE svg PUBLIC "-//W3C//DTD SVG 1.1//EN" "http://www.w3.org/Graphics/SVG/1.1/DTD/svg11.dtd" >
<svg xmlns="http://www.w3.org/2000/svg">
<metadata>Generated by IcoMoon</metadata>
<defs>
<font id="font-banco-chile-app" horiz-adv-x="1024">
<font-face units-per-em="1024" ascent="960" descent="-64" />
<missing-glyph horiz-adv-x="1024" />
<glyph unicode="&#x20;" horiz-adv-x="512" d="" />
<glyph unicode="&#xe900;" glyph-name="mail" horiz-adv-x="1405" d="M1.249 65.561c0-64.312 52.137-116.761 116.761-116.761h1168.234c64.624 0 116.761 52.137 116.761 116.761v787.668c0 64.312-52.449 116.761-116.761 116.761h-1168.234c-64.624 0-116.761-52.137-116.761-116.761v-787.668zM430.829 458.615l-267.239 268.8c-22.166 22.166-22.166 58.068 0 80.234s58.068 22.166 80.234 0l426.459-426.459c17.171-16.859 45.58-16.859 62.439 0l427.083 426.146c22.166 22.166 58.068 22.166 80.234 0s22.166-58.068 0-80.234l-267.551-268.8 267.551-266.927c22.166-22.166 22.166-58.068 0-80.234s-58.068-22.166-80.234 0l-267.239 266.615c0 0-83.356-84.917-98.654-99.902-23.727-23.102-56.507-37.463-92.098-37.463-36.215 0-68.995 14.673-92.722 38.088-15.298 15.298-98.341 99.278-98.341 99.278l-266.927-266.615c-22.166-22.166-58.068-22.166-80.234 0s-22.166 58.068 0 80.234l267.239 267.239z" />
<glyph unicode="&#xe901;" glyph-name="avanzar" horiz-adv-x="608" d="M563.428 512.91l36.409-36.409c9.33-9.33 9.33-24.804-0.228-34.361l-484.921-484.921c-9.557-9.557-25.031-9.557-34.361-0.228l-69.632 69.632c-9.33 9.33-9.33 24.804 0.228 34.361l398.222 398.222-401.408 401.408c-9.557 9.557-9.557 25.031-0.228 34.361l69.86 69.632c9.33 9.33 24.804 9.33 34.361-0.228l451.698-451.47z" />
<glyph unicode="&#xe902;" glyph-name="ayuda" horiz-adv-x="664" d="M563.428 889.458c-71.452 51.655-151.78 69.404-253.724 69.404-77.369 0-143.36-15.019-195.925-48.697-77.369-50.062-113.55-134.258-113.55-267.15h199.339c0 35.499-3.641 73.728 18.204 106.496 21.618 32.996 51.883 58.027 103.993 58.027 53.020 0 80.1-14.564 105.813-44.601 21.845-25.714 30.037-56.206 30.037-88.747 0-28.217-15.019-53.931-32.996-77.596-9.785-13.881-22.756-26.169-39.14-38.002 0 0-107.634-60.985-145.636-118.784-28.217-43.008-38.457-96.711-40.732-161.109-0.228-4.779 1.593-14.336 18.66-14.336h160.427c15.019 0 18.204 10.923 18.432 15.246 1.138 23.438 4.096 59.392 8.647 73.045 8.647 25.714 25.259 48.014 51.2 67.356l53.703 35.271c48.469 35.954 87.154 65.308 104.22 88.519 29.355 38.002 49.835 84.878 49.835 140.402 0 90.795-35.044 157.696-100.807 205.255v0zM295.822 166.286c-67.129 2.048-122.652-42.553-124.928-111.73-2.048-69.632 50.517-115.143 118.101-117.191 70.087-2.048 124.245 40.96 126.293 110.364 2.048 69.177-49.38 116.508-119.467 118.556v0z" />
<glyph unicode="&#xe903;" glyph-name="bell" horiz-adv-x="953" d="M64.398 239.104c-20.935-22.756-59.62-42.325-63.033-74.183s2.276-88.064 80.1-105.586c60.985-13.653 275.342 0 275.342 0s-23.211-122.197 121.287-122.197c144.498 0 131.982 122.197 131.982 122.197h248.263c73.728 0 138.354 94.891 52.793 158.834-72.59 54.386-107.861 157.924-111.502 200.476-6.827 82.148-5.234 199.566-71.225 286.492-66.219 87.154-157.241 111.957-157.241 111.957s14.108 27.762 9.557 58.709c-5.689 39.14-40.96 83.285-102.855 83.285s-94.891-57.344-94.663-98.759c0-25.031 10.923-43.008 10.923-43.008s-91.477-26.169-156.331-112.185c-65.081-85.788-53.703-161.337-78.962-305.607-9.557-53.703-35.044-96.256-94.436-160.427v0z" />
<glyph unicode="&#xe904;" glyph-name="celular" horiz-adv-x="589" d="M563.2 958.862h-536.348c-14.108 0-25.714-11.378-25.714-25.714v-970.297c0-14.336 11.15-25.714 25.714-25.714h536.348c14.108 0 25.714 11.378 25.714 25.714v970.297c-0.228 14.108-11.378 25.714-25.714 25.714v0zM294.912-11.662c-21.39 0-38.229 17.067-38.229 38.229 0 21.39 17.067 38.229 38.229 38.229 21.39 0 38.229-17.067 38.229-38.229 0.228-21.39-17.067-38.229-38.229-38.229v0zM537.714 115.996h-485.376v740.693h485.376v-740.693z" />
<glyph unicode="&#xe905;" glyph-name="cerrar" d="M510.862 311.239l-364.316-364.544c-12.743-12.743-32.996-12.971-45.511-0.455l-91.477 91.477c-12.288 12.288-12.288 32.768 0.455 45.511l364.316 364.772-364.544 364.544c-12.743 12.743-12.971 32.996-0.455 45.511l91.477 91.477c12.288 12.288 32.768 12.288 45.511-0.455l364.544-364.544 364.544 364.772c12.743 12.743 32.996 12.971 45.511 0.455l91.705-91.705c12.288-12.288 12.288-32.768-0.455-45.511l-364.544-364.544 364.544-364.544c12.743-12.743 12.971-32.996 0.455-45.511l-91.477-91.477c-12.288-12.288-32.768-12.288-45.511 0.455l-364.772 364.316z" />
<glyph unicode="&#xe906;" glyph-name="check" horiz-adv-x="1332" d="M314.599 59.709c1.184-1.776 2.664-3.847 4.439-5.327l106.247-106.247c14.502-14.502 38.178-14.206 52.384 0l841.397 841.397c14.502 14.502 14.206 38.178 0 52.384l-105.951 106.247c-14.502 14.502-38.178 14.206-52.384 0l-708.513-708.513-280.86 280.86c-14.798 14.798-38.474 14.798-52.976 0.296l-106.247-106.247c-14.502-14.502-14.206-38.178 0.296-52.976l302.169-301.873z" />
<glyph unicode="&#xe907;" glyph-name="config" d="M924.786 448c0 63.488 39.367 113.778 98.076 148.366-10.695 35.499-24.804 69.632-42.098 101.717-66.219-17.294-119.694 8.42-164.978 53.703-45.056 45.056-58.709 98.759-41.415 164.978-31.858 17.294-65.991 31.403-101.717 42.098-34.588-59.164-96.939-98.076-160.654-98.076-63.488 0-126.066 39.14-160.654 98.076-35.726-10.695-69.632-24.804-101.717-42.098 17.294-66.219 3.413-119.694-41.415-164.978-45.056-45.056-98.759-70.997-164.75-53.703-17.522-31.858-31.63-65.991-42.325-101.717 59.164-34.588 98.532-84.878 98.532-148.366s-39.367-126.066-98.532-160.654c10.695-35.726 24.804-69.632 42.098-101.717 66.219 17.294 119.694 3.413 164.75-41.415 45.284-45.056 58.709-98.759 41.415-164.978 32.085-17.294 65.991-31.403 101.717-42.098 34.588 59.164 97.166 98.076 160.654 98.076s126.066-39.14 160.654-98.076c35.726 10.695 69.632 24.804 101.717 42.098-17.294 66.219-3.413 119.694 41.415 164.978 45.056 45.056 98.759 70.997 164.978 53.703 17.294 32.085 31.403 66.219 42.098 101.717-58.937 34.588-97.849 84.878-97.849 148.366v0 0zM512 186.539c-144.27 0-261.461 116.964-261.461 261.461s116.964 261.461 261.461 261.461c144.498 0 261.461-116.964 261.461-261.461s-116.964-261.461-261.461-261.461v0 0z" />
<glyph unicode="&#xe908;" glyph-name="editar" horiz-adv-x="965" d="M96.256 806.855v-769.365h724.309v555.008l94.436 100.352v-705.65c0-27.762-21.163-50.062-47.332-50.062h-818.517c-26.169 0-47.332 22.3-47.332 50.062v869.717c0 27.762 21.163 50.062 47.332 50.062h666.965l-94.436-100.352-525.426 0.228zM816.242 662.357l-398.905-423.026-132.892 141.084 398.905 423.026 132.892-141.084zM250.766 345.145l133.12-141.084-177.266-47.104 44.146 188.188zM949.134 803.214l-99.669-105.813-132.892 141.084 99.669 105.813c18.432 19.342 48.242 19.342 66.446 0l66.446-70.542c18.432-19.342 18.432-50.972 0-70.542v0 0z" />
<glyph unicode="&#xe909;" glyph-name="error" d="M512 366.763l-212.309-212.309c-10.012-10.012-26.169-10.012-35.954 0l-45.284 45.284c-10.012 10.012-10.012 26.169 0 35.954l212.309 212.309-212.309 212.309c-10.012 10.012-10.012 26.169 0 35.954l45.284 45.284c10.012 10.012 26.169 10.012 35.954 0l212.309-212.309 212.309 212.309c10.012 10.012 26.169 10.012 35.954 0l45.284-45.284c10.012-10.012 10.012-26.169 0-35.954l-212.309-212.309 212.309-212.309c10.012-10.012 10.012-26.169 0-35.954l-45.284-45.284c-10.012-10.012-26.169-10.012-35.954 0l-212.309 212.309zM512-62.862c282.169 0 510.862 228.693 510.862 510.862s-228.693 510.862-510.862 510.862c-282.169 0-510.862-228.693-510.862-510.862s228.693-510.862 510.862-510.862v0 0z" />
<glyph unicode="&#xe90a;" glyph-name="flecha-abajo" d="M282.169 448v485.148c0 14.108 11.378 25.714 25.486 25.714h408.917c14.108 0 25.486-11.15 25.486-25.714v-485.148h281.031l-511.090-510.862-510.862 510.862h281.031z" />
<glyph unicode="&#xe90b;" glyph-name="flecha-arriba" d="M282.169 448v-485.148c0-14.108 11.378-25.714 25.486-25.714h408.917c14.108 0 25.486 11.15 25.486 25.714v485.148h281.031l-511.090 510.862-510.862-510.862h281.031z" />
<glyph unicode="&#xe90c;" glyph-name="home" d="M512 958.862l-510.862-595.968h127.659v-425.756h260.779v340.651h244.85v-340.651h260.779v425.756h127.659l-510.862 595.968z" />
<glyph unicode="&#xe90d;" glyph-name="mas" d="M435.143 371.143h-409.372c-14.368 0-25.771 11.403-25.771 25.315v102.856c0 13.912 11.631 25.315 25.771 25.315h409.372v409.6c0 14.368 11.403 25.771 25.315 25.771h102.856c13.912 0 25.315-11.631 25.315-25.771v-409.372h409.372c14.368 0 25.771-11.403 25.771-25.315v-102.856c0-13.912-11.631-25.315-25.771-25.315h-409.144v-409.372c0-14.368-11.403-25.771-25.315-25.771h-102.856c-13.912 0-25.315 11.631-25.315 25.771v409.144h-0.228z" />
<glyph unicode="&#xe90e;" glyph-name="menos" d="M938.6 515.4h-853.2c-12.4 0-22.4-10-22.4-22.4v-89.8c0-12.4 10-22.4 22.4-22.4h853.2c12.4 0 22.4 10 22.4 22.4v89.8c0 12.2-10 22.4-22.4 22.4z" />
<glyph unicode="&#xe90f;" glyph-name="menu" horiz-adv-x="1280" d="M109.538 894.862c-15.675 0-28.116-12.689-28.116-27.617v-112.212c0-15.177 12.44-27.617 28.116-27.617h1060.925c15.675 0 28.116 12.689 28.116 27.617v112.212c0 15.177-12.44 27.617-28.116 27.617h-1060.925zM109.538 531.849c-15.675 0-28.116-12.689-28.116-27.617v-112.212c0-15.177 12.44-27.617 28.116-27.617h1060.925c15.675 0 28.116 12.689 28.116 27.617v112.212c0 15.177-12.44 27.617-28.116 27.617h-1060.925zM109.538 168.587c-15.675 0-28.116-12.689-28.116-27.617v-112.212c0-15.177 12.44-27.617 28.116-27.617h1060.925c15.675 0 28.116 12.689 28.116 27.617v112.212c0 15.177-12.44 27.617-28.116 27.617h-1060.925z" />
<glyph unicode="&#xe910;" glyph-name="ok" d="M511.090 959.772c-282.169 0-510.862-228.693-510.862-510.862s228.693-510.862 510.862-510.862c282.169 0 510.862 228.693 510.862 510.862s-228.693 510.862-510.862 510.862v0zM837.632 600.69l-451.698-451.698c-9.785-9.785-25.941-9.785-35.954 0.228l-54.158 54.158c-3.641 3.641-5.916 8.192-7.054 12.743l-125.838 125.838c-9.785 9.785-10.012 26.169 0 36.181l54.158 54.158c10.012 10.012 26.169 10.012 36.181 0l117.646-117.646 376.604 376.604c9.785 9.785 25.941 9.785 35.954-0.228l54.158-54.158c10.012-10.012 10.012-26.169 0-36.181v0z" />
<glyph unicode="&#xe911;" glyph-name="salir-app" horiz-adv-x="912" d="M723.399 396.345h-378.652c-14.108 0-25.714 11.605-25.714 25.714v50.517c0 14.564 11.378 25.714 25.714 25.714h384.114l-117.191 117.191c-10.012 10.012-10.012 25.941 0.228 36.181l35.726 35.726c10.012 10.012 26.396 10.24 36.181 0.228l180.679-180.679c1.138-0.91 2.276-1.82 3.413-2.958l35.726-35.726c10.012-10.012 10.012-26.396 0-36.409l-226.418-226.418c-10.012-10.012-26.169-10.24-36.409 0l-35.499 36.181c-10.012 10.012-10.012 26.396-0.228 36.181l118.329 118.556zM7.509 950.67c4.551 4.551 11.15 7.509 18.204 7.509h584.135c14.108 0 25.714-11.378 25.714-25.486v-79.872c0-13.881-11.605-25.486-25.714-25.486h-482.873v-759.808h482.645c14.108 0 25.714-11.378 25.714-25.486v-79.872c0-13.881-11.605-25.486-25.714-25.486h-583.908c-14.108 0-25.714 11.378-25.714 25.486v970.524c0 7.054 2.731 13.426 7.509 17.977v0 0z" />
<glyph unicode="&#xe912;" glyph-name="selector" d="M515.186 197.006c-9.557-4.779-21.39-3.413-29.355 4.551l-325.404 325.404c-9.785 9.785-9.785 25.941 0.228 35.954l54.158 54.158c10.012 10.012 26.169 10.012 35.954 0.228l258.048-258.048 260.779 260.779c9.785 9.785 25.941 9.785 35.954-0.228l54.158-54.158c10.012-10.012 10.012-26.169 0.228-35.954l-325.404-325.404c-5.234-5.234-12.288-7.737-19.342-7.282v0zM511.317-62.862c282.169 0 510.862 228.693 510.862 510.862s-228.693 510.862-510.862 510.862c-282.169 0-510.862-228.693-510.862-510.862s228.693-510.862 510.862-510.862v0z" />
<glyph unicode="&#xe913;" glyph-name="telefono" horiz-adv-x="856" d="M238.933-57.401c63.26 9.33 147.911 61.44 231.879 143.36 75.548 73.5 98.304 107.179 170.667 206.62 76.686 105.813 133.12 191.374 178.859 315.164 53.020 143.132 33.678 205.483 11.378 252.359-14.791 31.175-46.421 59.392-86.699 77.369-1.365 0.683-2.958 1.365-4.324 2.048-17.977 8.192-52.11 23.893-89.429 18.432-33.906-5.006-61.895-25.259-83.285-60.985l-2.276-3.641c-24.804-41.415-53.020-88.292-67.584-135.168-18.204-59.392-10.012-106.951 24.348-141.54 28.444-28.672 48.242-39.14 48.924-50.062 0.91-10.923-18.432-33.223-35.271-58.937-36.864-56.434-46.876-70.315-60.985-89.657-2.503-3.413-5.006-7.054-7.964-10.923l-4.096-5.689c-15.929-22.3-24.804-34.816-67.129-84.196l-2.276-3.413c-15.246-17.749-30.265-33.678-37.774-34.588-13.653-2.048-36.181 19.57-74.866 36.864-12.971 5.916-28.217 7.509-45.056 5.006-72.363-10.468-171.577-101.262-204.572-146.773-35.271-48.924-56.434-103.993 24.804-177.266 77.596-69.86 124.018-63.033 182.727-54.386v0z" />
<glyph unicode="&#xe914;" glyph-name="twitter" horiz-adv-x="1206" d="M1062.869 797.554c50.932 31.899 90.337 82.563 108.565 142.877-47.715-29.487-100.524-51.2-156.817-62.727-45.035 50.396-109.37 81.759-180.406 81.759-136.444 0-246.886-115.535-246.886-258.145 0-20.373 2.145-39.941 6.434-58.974-205.336 10.723-387.351 113.391-509.051 269.939-21.177-38.065-33.508-82.563-33.508-129.742 0-89.533 43.962-168.612 110.174-214.986-40.746 1.072-79.079 12.867-112.318 32.168v-3.217c0-125.185 85.244-229.462 198.098-253.051-20.641-5.897-42.622-9.114-65.139-9.114-15.816 0-31.363 1.608-46.375 4.825 31.363-102.668 122.773-177.19 230.802-179.334-84.44-69.16-191.129-110.442-306.932-110.442-19.837 0-39.405 1.34-58.974 3.753 108.834-73.985 238.844-116.607 377.969-116.607 454.635 0 703.129 393.516 703.129 734.76 0 11.259-0.268 22.249-0.804 33.24 48.251 36.457 90.069 81.759 123.309 133.763-43.694-20.373-91.141-34.312-141.269-40.746v0z" />
<glyph unicode="&#xe915;" glyph-name="volver" horiz-adv-x="608" d="M43.918 396.117l-36.409 36.409c-9.33 9.33-9.33 24.804 0.228 34.361l484.921 484.921c9.557 9.557 25.031 9.557 34.361 0.228l69.632-69.632c9.33-9.33 9.33-24.804-0.228-34.361l-398.222-398.222 401.18-401.18c9.557-9.557 9.557-25.031 0.228-34.361l-69.404-70.087c-9.33-9.33-24.804-9.33-34.361 0.228l-451.925 451.698z" />
<glyph unicode="&#xe916;" glyph-name="youtube" horiz-adv-x="1363" d="M1352.104 732.781c0 119.669-87.858 215.707-196.62 215.707-147.238 6.968-297.202 9.695-450.802 9.695h-47.867c-152.994 0-303.564-2.727-450.802-9.695-108.459 0-196.317-96.644-196.317-216.312-6.665-94.523-9.695-189.046-9.392-283.872-0.303-94.523 2.727-189.046 9.089-284.175 0-119.669 87.858-216.615 196.317-216.615 154.509-7.271 313.259-10.301 474.433-9.998 161.477-0.606 319.621 2.727 474.433 9.998 108.762 0 196.62 96.947 196.62 216.615 6.362 94.826 9.392 189.349 9.089 284.175 1.212 95.129-1.818 189.652-8.18 284.478v0zM550.779 188.062v521.998l385.363-260.847-385.363-261.15z" />
</font>
</defs>
</svg>
